<svg width="157" height="107" viewBox="0 0 157 107" fill="none" xmlns="http://www.w3.org/2000/svg">
<g filter="url(#filter0_d_3960_640)">
<rect x="21.0918" y="21" width="106" height="57" rx="5" fill="white"/>
</g>
<g clip-path="url(#clip0_3960_640)">
<path d="M50.8912 51.1431H38.2912C37.6623 51.1431 37.2412 50.6848 37.2412 50.0003C37.2412 49.3158 37.6623 48.8574 38.2912 48.8574H50.8912C51.5201 48.8574 51.9412 49.3158 51.9412 50.0003C51.9412 50.6848 51.5201 51.1431 50.8912 51.1431Z" fill="#0A66C2"/>
<path d="M47.7416 58.0006H41.4416C40.8127 58.0006 40.3916 57.5422 40.3916 56.8577C40.3916 56.1732 40.8127 55.7148 41.4416 55.7148H47.7416C48.3705 55.7148 48.7916 56.1732 48.7916 56.8577C48.7916 57.5422 48.3705 58.0006 47.7416 58.0006Z" fill="#0A66C2"/>
<path d="M54.0418 44.2857H35.1418C34.5129 44.2857 34.0918 43.8274 34.0918 43.1429C34.0918 42.4583 34.5129 42 35.1418 42H54.0418C54.6707 42 55.0918 42.4583 55.0918 43.1429C55.0918 43.8274 54.6707 44.2857 54.0418 44.2857Z" fill="#0A66C2"/>
</g>
<path d="M73.6005 44.848V46.032H68.7525V49.792H72.6885V50.976H68.7525V56H67.2965V44.848H73.6005ZM76.111 45.808C75.8336 45.808 75.599 45.712 75.407 45.52C75.215 45.328 75.119 45.0933 75.119 44.816C75.119 44.5387 75.215 44.304 75.407 44.112C75.599 43.92 75.8336 43.824 76.111 43.824C76.3776 43.824 76.6016 43.92 76.783 44.112C76.975 44.304 77.071 44.5387 77.071 44.816C77.071 45.0933 76.975 45.328 76.783 45.52C76.6016 45.712 76.3776 45.808 76.111 45.808ZM76.815 47.232V56H75.359V47.232H76.815ZM80.7525 44.16V56H79.2965V44.16H80.7525ZM85.01 48.432V53.6C85.01 54.0267 85.1006 54.3307 85.282 54.512C85.4633 54.6827 85.778 54.768 86.226 54.768H87.298V56H85.986C85.1753 56 84.5673 55.8133 84.162 55.44C83.7566 55.0667 83.554 54.4533 83.554 53.6V48.432H82.418V47.232H83.554V45.024H85.01V47.232H87.298V48.432H85.01ZM97.0621 51.28C97.0621 51.5573 97.0461 51.8507 97.0141 52.16H90.0061C90.0594 53.024 90.3527 53.7013 90.8861 54.192C91.4301 54.672 92.0861 54.912 92.8541 54.912C93.4834 54.912 94.0061 54.768 94.4221 54.48C94.8487 54.1813 95.1474 53.7867 95.3181 53.296H96.8861C96.6514 54.1387 96.1821 54.8267 95.4781 55.36C94.7741 55.8827 93.8994 56.144 92.8541 56.144C92.0221 56.144 91.2754 55.9573 90.6141 55.584C89.9634 55.2107 89.4514 54.6827 89.0781 54C88.7047 53.3067 88.5181 52.5067 88.5181 51.6C88.5181 50.6933 88.6994 49.8987 89.0621 49.216C89.4247 48.5333 89.9314 48.0107 90.5821 47.648C91.2434 47.2747 92.0007 47.088 92.8541 47.088C93.6861 47.088 94.4221 47.2693 95.0621 47.632C95.7021 47.9947 96.1927 48.496 96.5341 49.136C96.8861 49.7653 97.0621 50.48 97.0621 51.28ZM95.5581 50.976C95.5581 50.4213 95.4354 49.9467 95.1901 49.552C94.9447 49.1467 94.6087 48.8427 94.1821 48.64C93.7661 48.4267 93.3021 48.32 92.7901 48.32C92.0541 48.32 91.4247 48.5547 90.9021 49.024C90.3901 49.4933 90.0967 50.144 90.0221 50.976H95.5581ZM100.44 48.656C100.696 48.1547 101.059 47.7653 101.528 47.488C102.008 47.2107 102.589 47.072 103.272 47.072V48.576H102.888C101.256 48.576 100.44 49.4613 100.44 51.232V56H98.984V47.232H100.44V48.656ZM108.057 56.144C107.385 56.144 106.782 56.032 106.249 55.808C105.715 55.5733 105.294 55.2533 104.985 54.848C104.675 54.432 104.505 53.9573 104.473 53.424H105.977C106.019 53.8613 106.222 54.2187 106.585 54.496C106.958 54.7733 107.443 54.912 108.041 54.912C108.595 54.912 109.033 54.7893 109.353 54.544C109.673 54.2987 109.833 53.9893 109.833 53.616C109.833 53.232 109.662 52.9493 109.321 52.768C108.979 52.576 108.451 52.3893 107.737 52.208C107.086 52.0373 106.553 51.8667 106.137 51.696C105.731 51.5147 105.379 51.2533 105.081 50.912C104.793 50.56 104.649 50.1013 104.649 49.536C104.649 49.088 104.782 48.6773 105.049 48.304C105.315 47.9307 105.694 47.6373 106.185 47.424C106.675 47.2 107.235 47.088 107.865 47.088C108.835 47.088 109.619 47.3333 110.217 47.824C110.814 48.3147 111.134 48.9867 111.177 49.84H109.721C109.689 49.3813 109.502 49.0133 109.161 48.736C108.83 48.4587 108.382 48.32 107.817 48.32C107.294 48.32 106.878 48.432 106.569 48.656C106.259 48.88 106.105 49.1733 106.105 49.536C106.105 49.824 106.195 50.064 106.377 50.256C106.569 50.4373 106.803 50.5867 107.081 50.704C107.369 50.8107 107.763 50.9333 108.265 51.072C108.894 51.2427 109.406 51.4133 109.801 51.584C110.195 51.744 110.531 51.9893 110.809 52.32C111.097 52.6507 111.246 53.0827 111.257 53.616C111.257 54.096 111.123 54.528 110.857 54.912C110.59 55.296 110.211 55.6 109.721 55.824C109.241 56.0373 108.686 56.144 108.057 56.144Z" fill="black"/>
<defs>
<filter id="filter0_d_3960_640" x="0.0917969" y="0" width="156" height="107" filterUnits="userSpaceOnUse" color-interpolation-filters="sRGB">
<feFlood flood-opacity="0" result="BackgroundImageFix"/>
<feColorMatrix in="SourceAlpha" type="matrix" values="0 0 0 0 0 0 0 0 0 0 0 0 0 0 0 0 0 0 127 0" result="hardAlpha"/>
<feOffset dx="4" dy="4"/>
<feGaussianBlur stdDeviation="12.5"/>
<feComposite in2="hardAlpha" operator="out"/>
<feColorMatrix type="matrix" values="0 0 0 0 0 0 0 0 0 0 0 0 0 0 0 0 0 0 0.15 0"/>
<feBlend mode="normal" in2="BackgroundImageFix" result="effect1_dropShadow_3960_640"/>
<feBlend mode="normal" in="SourceGraphic" in2="effect1_dropShadow_3960_640" result="shape"/>
</filter>
<clipPath id="clip0_3960_640">
<rect width="21" height="16" fill="white" transform="translate(34.0918 42)"/>
</clipPath>
</defs>
</svg>
